Coordinates
version=1
nRows=5
nColumns=40
inDegrees=yes

Units are S.I. units (second, meters, Newtons, ...)
Angles are in degrees.

endheader
time	pelvis_tilt	pelvis_list	pelvis_rotation	pelvis_tx	pelvis_ty	pelvis_tz	hip_flexion_r	hip_adduction_r	hip_rotation_r	knee_angle_r	knee_angle_r_beta	ankle_angle_r	subtalar_angle_r	mtp_angle_r	hip_flexion_l	hip_adduction_l	hip_rotation_l	knee_angle_l	knee_angle_l_beta	ankle_angle_l	subtalar_angle_l	mtp_angle_l	lumbar_extension	lumbar_bending	lumbar_rotation	arm_flex_r	arm_add_r	arm_rot_r	elbow_flex_r	pro_sup_r	wrist_flex_r	wrist_dev_r	arm_flex_l	arm_add_l	arm_rot_l	elbow_flex_l	pro_sup_l	wrist_flex_l	wrist_dev_l
      0.35000000	     -3.75083998	     10.08160865	     -0.49782622	     -0.56080547	      0.94377720	     -1.04034283	     10.52159271	    -23.29653580	    -12.63551494	    -63.18447652	     -1.10277715	    -11.28219349	    -16.68173842	      0.91387277	     16.18186382	    -10.52173727	      8.64673696	    -17.35914690	     -0.30297427	      1.44100225	      9.28263740	      0.46971820	     -0.15486480	    -11.40506065	      2.50992333	     -0.15901794	     -9.38869173	    -11.92963599	     25.53503592	     89.95437384	      0.00000000	      0.00000000	     -8.01602169	      9.93344044	     -4.48414560	     11.17731267	     89.95437384	      0.00000000	      0.00000000
      0.36000000	     -3.75540894	      9.69202589	     -0.56059064	     -0.54838191	      0.94597284	     -1.04221979	     12.62026913	    -22.50520989	    -11.88574543	    -64.40932836	     -1.12415485	     -9.99282412	    -17.31121606	      1.27554056	     14.82264641	    -10.25861906	      8.74020155	    -16.44247862	     -0.28697539	      1.80933402	      8.73179338	      0.41264199	     -0.21702315	    -10.91094411	      2.09904592	     -0.45884692	     -9.45518209	    -11.49452753	     24.86166717	     89.95437384	      0.00000000	      0.00000000	     -6.76529637	      9.98594824	     -4.57182042	     11.99752179	     89.95437384	      0.00000000	      0.00000000
      0.37000000	     -3.81516776	      9.27702413	     -0.77154817	     -0.53602595	      0.94796553	     -1.04374155	     14.90326244	    -21.52891800	    -10.95191193	    -65.61663321	     -1.14522629	     -5.78516179	    -17.35203030	     17.05421011	     13.56975332	     -9.82594506	      9.54485026	    -15.57588211	     -0.27185043	      1.92651048	      7.56091980	      0.06519116	     -0.19678163	    -10.37893950	      1.76629651	     -0.90138378	     -9.55954048	    -11.06882949	     24.53241754	     89.95437384	      0.00000000	      0.00000000	     -5.57784440	     10.04727754	     -3.92560156	     12.95301797	     89.95437384	      0.00000000	      0.00000000
      0.38000000	     -3.82511269	      8.79930508	     -0.70418213	     -0.52362923	      0.94992363	     -1.04562390	     16.70764323	    -20.56422987	    -10.55544835	    -66.07301060	     -1.15319158	     -4.49922048	    -17.68889735	     16.66876320	     12.13232803	     -9.51903608	      9.57151372	    -14.50293943	     -0.25312404	      2.20024111	      7.00577954	      0.01028986	     -0.27211892	     -9.78325904	      1.25098542	     -1.27901731	     -9.66997477	    -10.67544364	     24.02889568	     89.95437384	      0.00000000	      0.00000000	     -4.30500053	     10.16256063	     -3.73837379	     13.88057596	     89.95437384	      0.00000000	      0.00000000
      0.39000000	     -3.81072234	      8.34287026	     -0.62191319	     -0.51113880	      0.95173591	     -1.04756091	     18.38870597	    -19.64944520	    -10.29403873	    -66.21775460	     -1.15571784	     -3.13358998	    -17.81981794	     16.34900442	     10.62285310	     -9.22837028	      9.78992729	    -13.33189262	     -0.23268542	      2.39113215	      6.37475459	     -0.03840528	     -0.36572894	     -9.20091167	      0.70460144	     -1.69584057	     -9.79453123	    -10.33301136	     23.59251085	     89.95437384	      0.00000000	      0.00000000	     -3.08799269	     10.32461803	     -3.41344591	     14.95586435	     89.95437384	      0.00000000	      0.00000000
